<?xml version="1.0" encoding="utf-8"?>
<!-- Generator: Adobe Illustrator 24.0.1, SVG Export Plug-In . SVG Version: 6.00 Build 0)  -->
<svg version="1.1" id="圖層_1" xmlns="http://www.w3.org/2000/svg" xmlns:xlink="http://www.w3.org/1999/xlink" x="0px" y="0px"
	 viewBox="0 0 500 500" style="enable-background:new 0 0 500 500;" xml:space="preserve">
<style type="text/css">
	.st0{fill:#D9483B;}
	.st1{fill:#020202;}
	.st2{fill:#DA4B3E;}
	.st3{fill:#FFFFFF;}
</style>
<rect x="159.9" y="90.65" class="st0" width="63.94" height="208.74"/>
<rect x="222.88" y="27.66" transform="matrix(6.618623e-11 -1 1 6.618623e-11 132.2365 377.4714)" class="st0" width="63.94" height="189.91"/>
<rect x="285.87" y="218.53" transform="matrix(-1 -4.489221e-11 4.489221e-11 -1 635.6808 645.7961)" class="st0" width="63.94" height="208.74"/>
<rect x="222.88" y="300.34" transform="matrix(-6.619967e-11 1 -1 -6.619967e-11 650.1539 140.446)" class="st0" width="63.94" height="189.91"/>
<g>
	<path class="st1" d="M678.35,843.47c-4.16,1.36-8.11,2.36-12.16,2.78c-13.43,1.39-26.08-0.61-36.82-9.45
		c-9.34-7.69-15.37-17.46-17.05-29.6c-0.97-7.02,0.19-13.86,2.3-20.55c4.96-15.67,14.11-28.16,28.18-36.88
		c3.94-2.44,7.95-4.78,12.19-6.66c3.02-1.34,6.14-2.3,9.51-2.08c2.81,0.18,5.32,1.07,7.3,3.16c2.87,3.02,2.98,7.25,0.3,10.44
		c-0.99,1.18-2.24,2.03-3.53,2.85c-5.04,3.24-10.08,6.49-15.1,9.76c-10.92,7.11-16.96,17.42-20.07,29.85
		c-3.2,12.78,7.14,25.15,18.15,26.88c8.22,1.29,16.07,0.35,23.6-3.23c4.21-2,8.11-4.49,11.84-7.24c4.95-3.66,9.79-7.45,14.7-11.17
		c0.81-0.61,1.21-1.45,1.66-2.3c4.79-9.03,9.03-18.32,13.38-27.56c3.53-7.51,7.03-15.04,11.64-21.99c1.64-2.47,3.46-4.79,5.71-6.76
		c1.65-1.44,3.47-2.54,5.69-2.88c3.28-0.5,5.82,0.8,7.24,3.78c0.31,0.65,0.58,1.26,1.26,1.67c2.23,1.35,3.85,3.33,5.36,5.41
		c3.35,4.6,6.05,9.58,8.63,14.63c4.34,8.53,8.49,17.16,12.14,26.02c0.49,1.19,1.17,1.86,2.42,2.33c3.6,1.35,4.68,4.58,2.72,7.95
		c-0.51,0.87-0.55,1.55-0.24,2.45c1.21,3.56,1.98,7.23,2.43,10.96c0.44,3.74-0.17,7.33-1.73,10.74c-1.42,3.11-4.5,4.09-7.61,2.56
		c-3.6-1.77-6.5-4.36-8.75-7.64c-1.81-2.63-3.62-5.27-4.94-8.19c-0.54-1.19-1.11-1.62-2.53-1.39c-8.77,1.41-17.61,2.15-26.49,2.29
		c-2.88,0.05-5.75,0.24-8.63,0.25c-1.06,0-1.55,0.45-1.98,1.32c-8.13,16.29-17.73,31.78-26.3,47.83c-1.39,2.6-2.59,5.31-4.2,7.8
		c-1.87,2.9-4.43,4.71-7.92,5.23c-5.8,0.86-11.3-3.59-11.94-9.2c-0.3-2.62,0.27-5.08,1.25-7.47c2.1-5.11,4.94-9.84,7.56-14.68
		C677.82,844.94,678.25,844.45,678.35,843.47z M739.38,767.91c-3.33,9-6.57,17.48-10.11,26.14c6.84-0.49,13.3-0.95,19.92-1.42
		C745.95,784.44,742.78,776.47,739.38,767.91z"/>
	<path class="st1" d="M1121.86,785.9c-7.23,7.29-13.92,14.87-17.82,24.48c-0.76,1.86-1.69,3.61-3.03,5.13
		c-6.11,6.9-15.66,6.14-20.43-1.71c-6.19-10.18-13.42-19.65-19.99-29.57c-0.09-0.13-0.23-0.22-0.46-0.45
		c-0.51,0.83-0.26,1.7-0.23,2.49c0.45,13.82,0.38,27.64,0.48,41.46c0.06,7.53-0.76,14.99-1.24,22.48
		c-0.38,5.99-4.26,10.23-9.72,11.24c-6.97,1.29-13.44-3.59-14.07-10.64c-0.23-2.55-0.12-5.12,0.17-7.66
		c0.78-6.68,0.98-13.38,0.96-20.09c-0.08-20.37,0.29-40.74,0.63-61.11c0.05-2.87-0.01-5.76,0.69-8.58c1.07-4.36,3.85-7.4,7.83-7.68
		c3.38-0.24,6.86-0.09,10.15,1.05c2.3,0.8,4.15,2.38,5.92,4c3.96,3.63,7.48,7.66,10.96,11.73c5.61,6.56,10.9,13.38,15.96,20.37
		c0.56,0.77,1.14,1.52,1.68,2.23c0.71,0.03,0.87-0.5,1.14-0.86c7.69-10.11,16.58-19.02,26.63-26.79c2.28-1.76,4.44-3.6,6.35-5.8
		c3.59-4.14,8.19-5.51,13.43-3.81c4.47,1.45,7.15,4.67,7.95,9.34c0.16,0.94,0.26,1.9,0.28,2.86c0.59,23.16,2.02,46.29,2.22,69.46
		c0.09,10.38,0.23,20.77,0.45,31.15c0.03,1.6-0.03,3.19-0.46,4.75c-1.66,6-6.67,9.75-12.56,9.37c-6.09-0.4-11.16-4.92-12.04-10.84
		c-0.23-1.57-0.26-3.18-0.32-4.78c-0.44-11.74-0.12-23.49-0.41-35.22c-0.29-12.22-0.84-24.43-0.65-36.66
		C1122.32,786.86,1122.44,786.44,1121.86,785.9z"/>
	<path class="st1" d="M806.1,837.67c0.82,0.32,1.32-0.23,1.84-0.49c16.31-8.08,30.47-18.99,42.73-32.41
		c2.21-2.42,4.16-5.05,5.77-7.93c2.46-4.4,2.74-8.93,0.99-13.62c-0.31-0.82-0.6-1.66-1.02-2.42c-5.24-9.55-12.89-16.17-23.58-18.92
		c-5.28-1.36-10.64-0.89-15.96-0.01c-3.63,0.6-7.23,1.31-10.86,1.91c-1.9,0.32-3.82,0.38-5.71-0.17c-3.37-0.98-5.56-3.17-6.3-6.57
		c-0.76-3.48,0.29-6.49,3.09-8.78c0.67-0.55,1.43-1.06,2.23-1.39c9.42-3.92,19.08-6.85,29.42-6.95c8.42-0.08,16.34,1.86,23.7,5.89
		c11.82,6.49,21.08,15.53,26.64,27.95c5.54,12.41,5,24.67-1.54,36.63c-2.58,4.73-5.75,9.03-9.38,12.99
		c-22.62,24.63-50.03,41.19-82.72,48.8c-3.85,0.9-7.63,1.08-11.17-1.01c-4.45-2.62-7.2-6.42-6.99-11.72
		c0.21-5.3,3.24-8.85,7.89-11.14c1.23-0.61,2.55-0.99,3.88-1.21c1.16-0.19,1.57-0.79,1.8-1.86c4.05-18.92,10.17-37.25,15.87-55.7
		c0.94-3.05,2.07-6.04,3.44-8.93c0.79-1.67,1.69-3.27,2.88-4.68c1.61-1.91,3.61-3.12,6.14-3.37c5.82-0.58,10.01,3.71,8.98,9.46
		c-1.3,7.23-2.82,14.42-4.25,21.62c-2.15,10.81-4.65,21.54-7.42,32.2C806.33,836.46,806.23,837.07,806.1,837.67z"/>
	<path class="st1" d="M367.22,815.42c-2.08-0.17-4.2-0.44-6.32-0.51c-7.12-0.22-14.23-0.09-21.35,0.13
		c-9.35,0.3-18.71,0.5-28.05-0.21c-5.27-0.4-10.49-1.07-15.51-2.84c-1.59-0.56-3.11-1.27-4.55-2.14
		c-7.42-4.48-10.3-12.56-7.36-20.73c1.4-3.89,3.76-7.21,6.39-10.35c4.63-5.53,9.92-10.4,15.34-15.15
		c13.75-12.03,29.26-21.38,45.4-29.74c8.01-4.15,16.08-8.19,24.58-11.3c2.25-0.83,4.52-1.57,6.9-1.94c2.17-0.34,4.31-0.24,6.43,0.29
		c3.75,0.93,6.68,4.12,7.19,7.83c0.41,2.98-0.65,5.32-3.23,6.93c-1.02,0.64-2.15,1.06-3.29,1.42c-4.04,1.28-7.95,2.89-11.72,4.82
		c-14.89,7.62-29.21,16.19-42.6,26.23c-7.88,5.91-15.18,12.5-21.83,19.78c-0.53,0.57-1.19,1.06-1.47,1.96
		c0.84,0.59,1.82,0.41,2.72,0.46c7.59,0.44,15.19,0.2,22.78,0.09c8.71-0.13,17.43-0.54,26.14-0.08c5.04,0.27,10.03,0.89,14.86,2.45
		c3.14,1.01,6.11,2.41,8.64,4.55c6.66,5.63,8.67,12.78,6.66,21.13c-0.88,3.68-2.46,7.11-4.57,10.23
		c-9.36,13.87-21.45,24.65-36.63,31.83c-4.7,2.23-9.67,3.34-14.9,2.7c-4.43-0.55-8.06-2.55-10.41-6.45
		c-2.97-4.93-1.68-10.22,3.15-13.32c1.48-0.95,3.08-1.68,4.69-2.39c11.84-5.21,21.76-12.99,30.2-22.72
		c0.63-0.72,1.17-1.51,1.73-2.28C367.31,816.01,367.23,815.81,367.22,815.42z"/>
	<path d="M524.22,756.2c-0.08,3.69-1.17,6.99-3.02,10.05c-1.92,3.18-4.47,5.82-7.25,8.25c-3.98,3.48-8.38,6.4-12.86,9.18
		c-10.58,6.59-21.56,12.47-32.49,18.46c-9.66,5.29-19.34,10.57-29.04,15.8c-3.23,1.74-6.5,3.46-10.27,3.77
		c-1.2,0.1-1.25,1.07-1.52,1.86c-2.07,5.87-4.14,11.74-6.18,17.61c-3.95,11.38-7.96,22.74-11.61,34.22
		c-0.39,1.21-0.84,2.42-1.4,3.56c-2.59,5.32-8.29,7.89-13.83,6.26c-5.4-1.59-8.79-6.78-8.19-12.56c0.22-2.16,0.87-4.22,1.63-6.24
		c3.74-9.93,7.48-19.86,11.28-29.77c9.05-23.62,17.77-47.36,27.36-70.76c2.42-5.91,4.93-11.78,7.67-17.55
		c1.34-2.82,2.88-5.52,4.84-7.97c2.01-2.51,4.47-4.31,7.74-4.84c1.89-0.31,3.76-0.12,5.26,1.05c1.1,0.86,2.08,0.85,3.3,0.57
		c10.72-2.47,21.59-3.52,32.59-3.31c6.33,0.12,12.59,0.86,18.65,2.84c4.46,1.46,8.54,3.57,11.88,6.95
		C522.22,747.14,524.09,751.33,524.22,756.2z M437.42,795.89c1.27-0.65,1.98-1,2.68-1.37c8.12-4.28,16.26-8.54,24.37-12.86
		c10.01-5.33,20.09-10.54,29.71-16.57c2.78-1.74,5.49-3.58,7.94-5.77c0.81-0.73,1.73-1.39,2.22-2.52c-0.93-0.81-2.02-1.08-3.06-1.4
		c-2.76-0.85-5.61-1.23-8.49-1.46c-7.13-0.56-14.23-0.15-21.31,0.63c-6.2,0.68-12.34,1.72-18.35,3.46c-2,0.58-3.24,1.64-3.94,3.71
		c-3.05,9.07-6.26,18.1-9.4,27.14C439.04,791.05,438.33,793.22,437.42,795.89z"/>
	<path class="st1" d="M493.21,846.8c0.01-3.58,1.03-6.95,2.36-10.2c12.46-30.43,29.8-57.66,53.38-80.76
		c1.83-1.79,3.7-3.54,5.84-4.96c5.85-3.91,12.7-1.93,15.06,4.71c3.22,9.08,7.77,17.49,12.32,25.91c7.09,13.14,14.49,26.1,22.35,38.8
		c2.44,3.94,4.72,7.96,6.76,12.13c0.63,1.3,1.43,2.48,2.24,3.68c3.84,5.69,2.76,12.88-2.5,16.92c-5.27,4.05-12.49,3.22-17.03-1.94
		c-2.15-2.45-3.56-5.29-4.51-8.37c-2.02-6.55-5.57-12.34-8.95-18.22c-0.39-0.68-0.83-1.04-1.67-1.09
		c-7.27-0.43-14.53-0.62-21.8-0.14c-8.37,0.55-16.71,1.65-25.11,1.73c-3.28,0.03-6.57,0.14-9.8-0.52c-1.24-0.25-1.86,0.2-2.43,1.28
		c-2.88,5.43-5.82,10.83-8.76,16.22c-1.15,2.1-2.34,4.18-3.56,6.24c-0.98,1.66-2.25,3.1-3.74,4.34c-1.98,1.64-4.21,2.35-6.69,1.36
		c-2.52-1-3.48-3.14-3.75-5.68C493.17,847.76,493.21,847.28,493.21,846.8z M567.99,802c-4.45-8.67-8.52-17.14-12.19-26.06
		c-8.4,8.82-15.78,17.97-22.66,28.1C544.92,803,556.2,801.14,567.99,802z"/>
	<path class="st1" d="M1209.93,798.9c0.91-1.99,1.84-4,2.75-6.03c3.98-8.8,8.35-17.42,11.94-26.39c0.62-1.55,1.15-3.15,1.82-4.68
		c1.56-3.58,4.67-5.58,8.05-5.27c3.51,0.32,6.22,2.7,7.17,6.44c1.03,4.04,0.64,8.09-0.19,12.11c-1.08,5.18-2.89,10.13-4.83,15.03
		c-3.04,7.64-6.28,15.19-9.69,22.67c-2.09,4.58-4.42,9.03-7.33,13.16c-1.39,1.97-2.32,4.19-3.29,6.38
		c-3.09,7.01-6.13,14.04-9.18,21.07c-2.89,6.67-6.07,13.2-9.58,19.56c-1.2,2.17-2.53,4.25-3.92,6.3c-2.06,3.02-4.9,4.99-8.17,6.43
		c-2.31,1.02-4.55,0.9-6.51-0.8c-1.94-1.69-2.39-3.84-1.74-6.31c0.83-3.17,1.84-6.27,3.09-9.3c2.87-6.94,5.36-14.01,7.43-21.23
		c2.49-8.7,5.96-17.02,9.76-25.2c0.63-1.36,0.62-2.26-0.32-3.61c-13.57-19.46-27.02-39-36.84-60.73c-1.64-3.64-3.27-7.28-4.28-11.16
		c-0.34-1.32-0.57-2.66-0.44-4.03c0.27-2.8,1.67-4.82,4.3-5.84c2.51-0.98,4.87-0.52,6.96,1.19c1.13,0.92,1.91,2.14,2.76,3.3
		c6.31,8.65,12.22,17.57,18.04,26.56c6.6,10.21,13.85,19.94,21.24,29.58C1209.18,798.42,1209.38,798.78,1209.93,798.9z"/>
	<path class="st1" d="M990.12,851.37c-6.7,0.34-13.41,0.64-20.11,1.04c-10.22,0.61-20.45,0.59-30.67,0.13
		c-7.74-0.34-15.48-0.81-23.18-1.74c-3.17-0.38-6.33-0.86-9.37-1.89c-2.3-0.78-4.38-1.94-6.12-3.65c-2.53-2.5-2.73-5.61-0.51-8.39
		c1.97-2.47,4.63-3.87,7.56-4.82c4.13-1.34,8.41-1.89,12.7-2.33c11.61-1.19,23.28-1.46,34.93-2.01c8.94-0.42,17.86-1.11,26.8-1.58
		c6.7-0.36,13.41-0.69,20.1,0.2c3.43,0.46,6.43,1.85,9,4.15c6.3,5.63,4.9,15.51-2.7,19.21c-3.02,1.47-6.26,1.83-9.56,1.82
		c-2.96,0-5.91,0-8.87,0C990.13,851.47,990.13,851.42,990.12,851.37z"/>
	<path class="st1" d="M961.38,789.11c9.35-0.17,18.71-0.49,28.06-0.22c1.93,0.05,3.83,0.25,5.72,0.58
		c5.81,1.03,10.44,5.67,11.49,11.45c1.22,6.76-3.28,12.82-10.35,13.88c-1.18,0.18-2.39,0.29-3.58,0.24
		c-13.1-0.54-26.22-0.21-39.32-0.71c-8.23-0.31-16.44-0.96-24.64-1.66c-4.3-0.36-8.61-0.6-12.89-1.17
		c-1.83-0.24-3.63-0.58-5.31-1.39c-4.81-2.32-6.24-7.35-3.39-11.86c1.19-1.88,2.86-3.21,4.76-4.28c3.61-2.02,7.57-2.95,11.61-3.58
		c7.61-1.19,15.3-1.07,22.97-1.25C951.46,789.02,956.42,789.11,961.38,789.11z"/>
	<path class="st1" d="M943.9,775.46c-9.01,0.12-17.24,0.25-25.47,0.05c-3.28-0.08-6.55-0.29-9.76-1c-5.45-1.22-8.72-5.47-8.26-10.7
		c0.32-3.65,2.33-6.19,5.43-7.97c2.9-1.66,6.1-2.33,9.35-2.81c9.81-1.46,19.7-2.03,29.6-2.41c12.53-0.48,25.07-0.87,37.55-2.29
		c2.38-0.27,4.79-0.3,7.18-0.13c5.8,0.41,10.41,4.71,11.17,10.39c0.73,5.41-2.47,10.67-7.79,12.66c-4.08,1.52-8.4,1.89-12.68,2.36
		C967.88,774.96,955.49,775.12,943.9,775.46z"/>
	<path class="st2" d="M537.2,874.14c1.78-0.48,3.06-1.58,4.47-2.46c2.12-1.33,4.3-1.65,6.58-0.42c1.58,0.85,2.48,2.22,2.91,3.92
		c0.29,1.14,0.5,2.3,0.82,3.78c1.34-0.94,2.26-2.05,3.5-2.7c1.2-0.63,2.53-0.85,3.8-1.22c0.04-1.07-0.61-1.74-1.01-2.49
		c-2.19-4.02-3.85-8.23-4.94-12.68c-0.21-0.86-0.36-1.72-0.34-2.6c0.06-2.65,1.69-4.8,4.17-5.51c2.57-0.73,5.17,0.32,6.6,2.66
		c0.51,0.83,0.81,1.74,1.03,2.67c1.05,4.4,3.01,8.39,5.33,12.24c1.52,2.53,3.11,5.02,4.28,7.75c0.63,1.47,1.16,2.97,1.41,4.56
		c0.72,4.51-2.58,8.03-7.16,7.65c-1.55-0.13-2.93-0.76-4.32-1.36c-0.44-0.19-0.87-0.41-1.32-0.58c-1.7-0.63-1.73-0.62-2.35,1.13
		c-0.5,1.43-0.94,2.88-1.46,4.3c-0.62,1.67-1.5,3.17-2.82,4.39c-2.89,2.69-7,2.82-10.05,0.32c-1.59-1.3-2.58-3.02-3.34-4.89
		c-0.87-2.15-1.37-4.41-1.96-6.63c-0.89-0.23-1.41,0.36-2.01,0.66c-4.33,2.23-8.65,4.49-13.3,6.01c-1.44,0.47-2.9,0.9-4.45,0.84
		c-4.59-0.2-7.25-4.6-5.27-8.72c0.21-0.43,0.45-0.84,0.72-1.24c4.26-6.37,8.49-12.77,13-18.97c1.36-1.88,2.79-3.7,4.56-5.23
		c1.92-1.65,4.02-2.88,6.68-2.83c2.52,0.05,4.61,1.4,5.28,3.42c0.72,2.18-0.05,4.15-2.34,5.73
		C540.78,867.8,539.16,871.09,537.2,874.14z"/>
	<path class="st1" d="M654.4,701.45c2.34,0.01,4.77,1.65,5.8,4.39c1.04,2.78,0.25,5.25-2.35,7.4c-0.68,0.56-1.39,1.1-1.97,1.74
		c-8.07,8.99-17.66,16.15-27.55,22.95c-1.78,1.22-3.55,2.45-5.56,3.28c-1.03,0.42-2.08,0.85-3.16,1.08
		c-2.83,0.61-5.1-0.91-5.64-3.76c-0.67-3.58,0.38-6.8,2.31-9.76c1.36-2.08,3.05-3.89,4.93-5.52c2.36-2.04,4.87-3.89,7.39-5.71
		c4.92-3.56,9.62-7.4,14.41-11.14c1.7-1.33,3.47-2.56,5.4-3.55C650.06,702,651.81,701.49,654.4,701.45z"/>
	<path class="st2" d="M1390.37,804.88c0,17.02,0,34.03-0.01,51.05c0,0.8,0.02,1.61-0.14,2.38c-0.17,0.86-0.79,1.39-1.72,1.36
		c-0.82-0.03-1.35-0.51-1.54-1.28c-0.15-0.61-0.19-1.26-0.19-1.89c-0.01-34.35-0.01-68.71-0.01-103.06c0-0.4-0.02-0.8,0.03-1.2
		c0.13-1.03,0.55-1.87,1.73-1.96c0.99-0.08,1.69,0.75,1.81,2.11c0.06,0.71,0.02,1.44,0.02,2.16
		C1390.37,771.33,1390.37,788.11,1390.37,804.88z"/>
	<path class="st3" d="M739.38,767.91c3.4,8.56,6.57,16.53,9.82,24.72c-6.63,0.47-13.08,0.93-19.92,1.42
		C732.81,785.39,736.05,776.91,739.38,767.91z"/>
	<path class="st3" d="M437.42,795.89c0.91-2.68,1.62-4.85,2.37-7.01c3.14-9.05,6.34-18.07,9.4-27.14c0.7-2.07,1.94-3.13,3.94-3.71
		c6.01-1.74,12.15-2.78,18.35-3.46c7.08-0.78,14.18-1.19,21.31-0.63c2.87,0.23,5.72,0.61,8.49,1.46c1.04,0.32,2.13,0.58,3.06,1.4
		c-0.49,1.14-1.41,1.8-2.22,2.52c-2.45,2.2-5.16,4.03-7.94,5.77c-9.62,6.04-19.7,11.24-29.71,16.57
		c-8.11,4.32-16.24,8.57-24.37,12.86C439.4,794.9,438.69,795.25,437.42,795.89z"/>
	<path class="st3" d="M567.99,802c-11.8-0.86-23.08,1-34.85,2.04c6.88-10.13,14.26-19.28,22.66-28.1
		C559.47,784.85,563.55,793.33,567.99,802z"/>
	<g>
		<path class="st2" d="M2003.32,792.18c-4.4,0-8.55,0.01-12.7-0.01c-0.77,0-1.11,0.48-1.48,1.02c-1.12,1.65-2.22,3.32-3.41,4.92
			c-2.19,2.94-3.6,3.17-6.63,1.18c-0.19-0.12-0.42-0.18-0.81-0.35c-0.71,2.16-0.88,4.36-1.28,6.51c-1.13,6.12-2.17,12.26-3.3,18.38
			c-0.58,3.13-2.08,4.32-5.29,4.33c-3.52,0.02-7.04,0.04-10.56-0.02c-1.18-0.02-1.86,0.18-2.16,1.54c-0.37,1.68-1.63,2.71-3.39,2.97
			c-1.94,0.28-3.26-0.86-3.27-2.83c0-0.64,0.08-1.28,0.19-1.91c2.23-12.65,4.46-25.31,6.7-37.95c0.5-2.81,2.05-4.12,4.93-4.26
			c0.4-0.02,0.81-0.05,1.2,0c1.33,0.18,2.07-0.38,2.49-1.65c0.55-1.67,1.2-3.3,1.86-4.93c0.97-2.41,2.99-3.54,5.3-3.03
			c2.15,0.47,2.92,1.88,2.02,3.89c-0.62,1.38-1.4,2.69-2.1,4.04c-0.21,0.41-0.59,0.78-0.33,1.46c0.81,0.39,1.77,0.16,2.69,0.2
			c0.8,0.04,1.6-0.03,2.4,0.02c2.76,0.16,3.81,1.51,3.35,4.31c-0.27,1.63-0.58,3.26-0.9,5.05c1.14-0.36,1.51-1.21,2.02-1.88
			c3.18-4.13,5.74-8.65,8.02-13.32c0.57-1.17,1.2-2.25,2.36-2.93c1.43-0.84,3.2-0.79,4.26,0.14c1.05,0.92,1.19,2.22,0.46,3.93
			c-0.56,1.29-1.4,2.47-1.76,3.83c0.84,0.62,1.66,0.37,2.42,0.38c3.52,0.03,7.04-0.02,10.56,0.02c3.1,0.04,4.22,1.42,3.67,4.41
			c-1.91,10.36-4.2,20.64-7.04,30.79c-0.71,2.54-1.51,5.05-2.68,7.42c-1.87,3.76-4.92,5.77-9.08,6.1c-1.91,0.15-3.82,0.36-5.74,0.09
			c-2.45-0.34-4.07-2.58-3.6-5c0.26-1.33,1.2-2.12,2.76-2.15c1.52-0.03,3.04,0.03,4.55,0.13c2.77,0.18,4.53-1,5.52-3.6
			c1.34-3.52,2.31-7.13,3.21-10.77C2000.41,805.99,2001.85,799.29,2003.32,792.18z M1962.53,821.46c1.11,0,2.23-0.03,3.34,0.01
			c0.9,0.03,1.46-0.16,1.63-1.23c0.53-3.29,1.16-6.57,1.76-9.85c0.15-0.84,0-1.38-1.04-1.36c-2.55,0.03-5.09,0.02-7.64,0.01
			c-0.73,0-1.2,0.24-1.34,1.03c-0.6,3.44-1.23,6.88-1.85,10.32c-0.16,0.89,0.33,1.09,1.09,1.08
			C1959.83,821.44,1961.18,821.45,1962.53,821.46z M1967.42,792.28c-1.28,0-2.55,0.02-3.83-0.01c-0.87-0.02-1.3,0.36-1.45,1.21
			c-0.44,2.59-0.91,5.17-1.39,7.75c-0.17,0.9,0.12,1.36,1.09,1.36c2.47-0.01,4.94-0.02,7.41,0.01c0.94,0.01,1.44-0.32,1.59-1.33
			c0.38-2.43,0.91-4.85,1.29-7.28c0.26-1.63,0.17-1.67-1.61-1.71C1969.49,792.26,1968.45,792.27,1967.42,792.28z"/>
		<path class="st2" d="M1878.98,804.66c-1.78,0.16-3.5,0.32-5.22,0.45c-1.31,0.1-2.34-0.4-3.03-1.54c-1.12-1.86-0.25-3.55,1.91-3.71
			c3.17-0.24,3.19-0.23,3.77-3.39c0.74-4.07,1.45-8.14,2.2-12.38c-3.81,0-7.45,0-11.49,0c1.18,0.9,2.12,1.56,3,2.3
			c1.55,1.29,1.67,2.81,0.41,4.37c-1.23,1.52-2.88,1.78-4.43,0.67c-0.65-0.47-1.24-1-1.86-1.51c-1.82-1.53-2-2.77-0.69-4.75
			c0.21-0.32,0.61-0.53,0.52-1.08c-0.27-0.04-0.58-0.09-0.88-0.14c-1.76-0.32-2.55-0.98-2.69-2.23c-0.15-1.27,0.89-2.87,2.23-3.38
			c0.76-0.29,1.57-0.28,2.37-0.28c5.51,0,11.03,0,16.54,0.01c0.64,0,1.29,0.01,1.91,0.14c1.42,0.3,2.18,1.22,2.27,2.68
			c0.02,0.4,0.01,0.8-0.06,1.19c-1.05,5.89-2.1,11.78-3.17,17.66c-0.14,0.78-0.39,1.54-0.59,2.31c0.71,0.5,1.53,0.49,2.3,0.64
			c2.32,0.47,2.89,1.66,1.77,3.77c-0.18,0.34-0.41,0.66-0.61,0.98c0.5,0.74,1.2,0.46,1.79,0.46c4.48,0.03,8.95,0,13.43,0.02
			c3.13,0.02,4.18,1.3,3.64,4.35c-1.05,5.89-2.09,11.78-3.13,17.67c-0.65,3.69-3.38,5.42-7.03,4.46c-0.6-0.16-1.06-0.47-1.17-1.05
			c-0.21-1.06-0.95-1.12-1.8-1.12c-7.91,0.01-15.82,0.01-23.74-0.01c-0.98,0-1.56,0.32-2.13,1.16c-0.78,1.16-3.59,1.51-5.09,0.85
			c-1.36-0.61-1.95-1.95-1.62-3.85c1.07-6.13,2.15-12.25,3.26-18.37c0.49-2.69,2.07-4.03,4.78-4.07c2.72-0.04,5.43-0.01,8.15-0.01
			C1877.79,807.93,1877.79,807.93,1878.98,804.66z M1880.48,826.6c3.83,0,7.66,0.01,11.49-0.01c1.93-0.01,1.93-0.04,2.28-1.94
			c0.3-1.6,0.24-1.73-1.25-1.74c-8.06-0.02-16.12-0.02-24.18,0c-1.38,0-1.67,0.56-1.8,2.44c-0.1,1.48,0.88,1.24,1.72,1.24
			C1872.66,826.6,1876.57,826.6,1880.48,826.6z M1868.65,817.02c0.86,0.3,1.66,0.19,2.45,0.19c7.26,0.01,14.53,0,21.79,0
			c0.56,0,1.12,0,1.68-0.02c0.41-0.01,0.8-0.1,0.97-0.53c0.34-0.83,0.61-1.75,0.31-2.56c-0.3-0.82-1.25-0.46-1.91-0.46
			c-7.42-0.02-14.85-0.03-22.27-0.01c-2.97,0.01-2.41-0.28-3.05,2.69C1868.58,816.48,1868.63,816.65,1868.65,817.02z"/>
		<path class="st2" d="M1704.93,778.47c4.4,0,8.79,0,13.19,0c0.48,0,0.96-0.02,1.44,0.01c2.78,0.15,3.88,1.51,3.42,4.25
			c-0.63,3.7-1.3,7.38-1.96,11.08c-2.02,11.39-4.04,22.78-6.06,34.17c-0.15,0.86-0.26,1.74-0.5,2.58c-0.59,2.07-2.59,3.42-4.74,3.27
			c-1.22-0.09-2.27-0.53-2.42-1.86c-0.12-1.03-0.56-1.32-1.53-1.32c-6.95,0.02-13.91,0.02-20.86,0c-0.93,0-1.5,0.27-1.75,1.22
			c-0.17,0.62-0.63,1.1-1.13,1.52c-1.23,1.03-2.8,1.27-4.01,0.61c-1.24-0.67-1.69-1.65-1.38-3.49c0.82-4.88,1.71-9.74,2.57-14.61
			c1.85-10.45,3.69-20.89,5.54-31.34c0.07-0.39,0.12-0.79,0.2-1.18c0.74-3.77,2.05-4.88,5.85-4.89
			C1695.5,778.46,1700.21,778.47,1704.93,778.47z M1715.25,785.37c-0.24-0.16-0.31-0.24-0.38-0.24c-7.42-0.04-14.84-0.07-22.26-0.11
			c-0.79,0-1.16,0.33-1.25,1.1c-0.05,0.47-0.21,0.93-0.3,1.4c-2.03,11.54-4.05,23.07-6.08,34.61c-0.35,1.99-0.36,2.02,1.68,2.02
			c6.63,0.02,13.26,0.02,19.89,0c1.86,0,1.88-0.04,2.22-1.97c1.57-8.78,3.14-17.57,4.69-26.36
			C1714.08,792.32,1714.66,788.8,1715.25,785.37z"/>
		<path class="st2" d="M1781.81,794.1c1.47-0.56,2.74-1.22,3.93-2c-0.05-0.18-0.04-0.36-0.13-0.44c-0.66-0.64-1.69-1.07-1.17-2.32
			c0.38-0.9,1.78-1.72,2.98-1.65c0.64,0.04,1.28,0.18,1.79,0.61c0.82,0.68,1.5,0.62,2.31-0.09c0.85-0.75,1.89-1.22,3.07-1.16
			c0.73,0.04,1.45,0.24,1.8,0.98c0.36,0.76,0.03,1.4-0.51,1.94c-0.5,0.51-1.04,0.98-1.54,1.45c0.02,0.39,0.24,0.61,0.45,0.85
			c1.18,1.34,1.28,2.08,0.47,3.11c-0.9,1.15-2.35,1.49-3.65,0.82c-0.35-0.18-0.68-0.43-0.97-0.7c-0.63-0.6-1.23-0.57-1.93-0.08
			c-0.72,0.5-1.46,0.96-2.31,1.25c-1.02,0.34-2.06,0.52-3.04,0.05c-3.02-1.46-6.21-0.44-9.32-0.7c-0.67-0.06-0.96,0.4-0.99,1.07
			c-0.03,0.73,0.32,1.01,0.98,1.03c0.48,0.01,0.96,0.02,1.44,0.02c8.87,0,17.75,0,26.62,0c0.64,0,1.28,0,1.91-0.1
			c0.71-0.11,0.74-0.75,0.79-1.3c0.06-0.71-0.49-0.71-0.96-0.72c-1.04-0.03-2.08,0-3.12-0.02c-1.9-0.04-2.71-0.62-2.75-1.93
			c-0.04-1.32,1.04-2.56,2.53-2.72c1.19-0.12,2.4-0.03,3.59-0.05c0.56-0.01,1.12,0.02,1.67-0.06c0.7-0.09,0.82-0.67,0.86-1.25
			c0.04-0.68-0.47-0.74-0.96-0.75c-1.2-0.02-2.4,0.02-3.6-0.02c-1.9-0.06-2.68-0.66-2.71-1.99c-0.03-1.47,1.07-2.61,2.75-2.7
			c1.27-0.07,2.56-0.01,3.84-0.03c0.48,0,0.96,0,1.43-0.08c0.7-0.12,0.81-0.72,0.82-1.28c0.02-0.62-0.44-0.79-0.96-0.8
			c-1.44-0.02-2.88,0.01-4.32-0.04c-1.82-0.06-2.51-0.57-2.6-1.82c-0.09-1.25,0.77-2.42,2.15-2.81c0.53-0.15,1.1-0.16,1.66-0.17
			c2.64-0.02,5.28-0.03,7.91,0c3.29,0.03,4.29,1.23,3.66,4.53c-0.9,4.7-2.23,9.31-3.47,13.93c-0.16,0.61-0.49,1.18-0.32,1.83
			c0.27,0.41,0.71,0.29,1.09,0.38c2.24,0.53,3,1.46,2.74,3.72c-0.23,1.98-0.57,3.95-1.03,5.89c-0.44,1.89-1.78,2.99-3.68,3.32
			c-2.41,0.41-4.06-1.2-3.71-3.63c0.17-1.18,0.46-2.34,0.42-3.51c-0.72-0.44-1.45-0.28-2.16-0.29c-11.99-0.01-23.98-0.01-35.97-0.01
			c-2.31,0-2.31,0.01-2.73,2.24c-0.13,0.7-0.2,1.43-0.41,2.11c-0.48,1.56-1.54,2.59-3.14,3c-2.21,0.56-3.91-0.69-3.82-2.94
			c0.1-2.31,0.56-4.61,1.18-6.83c0.48-1.75,1.85-2.85,3.67-3.01c1.3-0.12,1.77-0.62,1.9-1.88c0.45-4.45,1.01-8.88,1.5-13.32
			c0.33-2.97,1.27-3.89,4.23-4c0.81-0.03,1.56-0.27,2.32-0.54c1.57-0.57,3.16-1.11,4.73-1.69c0.87-0.33,1.71-0.35,2.56,0.04
			c0.84,0.39,1.49,0.95,1.52,1.96c0.03,0.99-0.49,1.66-1.37,2.05c-0.58,0.26-1.18,0.48-1.79,0.67c-1.22,0.39-2.44,0.75-3.66,1.12
			c-0.68,0.2-1.62,0.33-1.46,1.24c0.17,0.97,1.16,0.57,1.8,0.6c1.2,0.06,2.4,0.04,3.6,0.01c1.07-0.03,1.95,0.29,2.25,1.37
			c0.32,1.13-0.21,2.03-1.09,2.71c-0.73,0.57-1.61,0.66-2.5,0.65c-1.28-0.01-2.56,0.02-3.84,0.01c-0.81-0.01-1.13,0.41-1.15,1.18
			c-0.02,0.81,0.5,0.87,1.1,0.88c1.04,0,2.08,0,3.12,0.01C1780.6,791.31,1780.82,791.48,1781.81,794.1z"/>
		<path class="st2" d="M2374.25,800.86c3.16,0,6.1,0,9.05,0c1.28,0,2.56-0.07,3.83,0.03c2.09,0.17,3.25,1.79,2.88,3.85
			c-0.46,2.51-2.14,3.95-4.89,4c-3.36,0.06-6.71,0.01-10.07,0.02c-2.25,0.01-2.24,0.03-2.61,2.16c-0.47,2.67-0.97,5.34-1.41,8.01
			c-0.37,2.27-0.32,2.33,1.92,2.34c4.16,0.02,8.31,0,12.47,0.01c0.72,0,1.45-0.01,2.15,0.1c1.66,0.27,2.63,1.55,2.53,3.23
			c-0.16,2.57-2.05,4.45-4.67,4.51c-2.24,0.06-4.48,0.01-6.71,0.01c-4.8,0-9.59,0.02-14.39-0.01c-3.22-0.01-4.29-1.35-3.73-4.56
			c2.2-12.49,4.41-24.98,6.61-37.46c0.63-3.55,2.11-4.85,5.64-4.86c6.39-0.01,12.79,0,19.18,0c0.48,0,0.97-0.03,1.44,0.03
			c1.97,0.27,3.08,1.8,2.75,3.74c-0.43,2.61-2.13,4.06-5.06,4.1c-3.92,0.06-7.83,0.02-11.75,0.02c-3.23,0-3.25,0-3.85,3.2
			C2375.11,795.76,2374.72,798.19,2374.25,800.86z"/>
		<path class="st2" d="M2252.7,782.25c0.95,0,1.59-0.04,2.23,0.01c2.4,0.17,3.83,1.43,4.19,3.82c0.83,5.44,1.61,10.89,2.4,16.33
			c1.07,7.34,2.11,14.68,3.23,22.02c0.26,1.72,0.14,3.19-1.45,4.2c-3.26,2.08-7.67,0.1-8.18-3.72c-0.29-2.13-0.49-4.28-0.63-6.43
			c-0.07-1-0.44-1.39-1.46-1.38c-4.16,0.04-8.31,0.05-12.47-0.01c-1.06-0.02-1.59,0.4-1.98,1.31c-0.92,2.12-1.89,4.22-2.86,6.33
			c-1.67,3.65-4.22,5.03-8.07,4.38c-1.55-0.26-2.32-1.46-1.84-2.98c0.21-0.68,0.57-1.32,0.89-1.96
			c6.15-12.36,12.37-24.68,18.42-37.09C2246.79,783.63,2249.14,781.84,2252.7,782.25z M2242.52,809.87c3.28,0,6.07,0.01,8.85,0
			c2.15-0.01,2.21-0.03,2.03-2.09c-0.49-5.72-1.02-11.43-1.54-17.14c-0.03-0.31-0.04-0.66-0.63-0.53
			C2248.42,796.5,2245.57,802.96,2242.52,809.87z"/>
		<path class="st2" d="M2183.74,782.24c3.19,0.03,6.39-0.12,9.57,0.35c1.99,0.29,3.92,0.76,5.72,1.66c3.45,1.72,5.26,4.55,5.45,8.38
			c0.47,9.5-5.5,17.19-14.86,19.24c-3.24,0.71-6.51,0.56-9.78,0.58c-2.76,0.02-2.74,0.01-3.23,2.83c-0.56,3.22-1.09,6.44-1.74,9.65
			c-0.74,3.63-4.44,5.46-7.75,3.93c-1.34-0.62-1.93-1.8-1.65-3.59c0.51-3.23,1.07-6.45,1.64-9.66c1.71-9.65,3.52-19.29,5.1-28.96
			c0.42-2.54,2.68-4.68,5.32-4.4c0.08,0.01,0.16,0,0.24,0C2179.75,782.24,2181.75,782.24,2183.74,782.24z M2178.59,805.1
			c2.85-0.04,5.62,0.24,8.39-0.28c4.91-0.92,7.35-3.48,8.04-8.46c0.48-3.42-0.74-5.26-4.13-6.16c-2.91-0.78-5.88-0.35-8.83-0.44
			c-0.82-0.03-1.05,0.47-1.17,1.19c-0.46,2.75-0.97,5.5-1.44,8.25C2179.13,801.07,2178.6,802.92,2178.59,805.1z"/>
		<path class="st2" d="M2115.21,830.06c-4.63-0.09-8.89-1.23-12.64-3.96c-2.15-1.57-2.36-3.48-0.61-5.49
			c1.94-2.24,4.1-3.38,7.3-1.12c3.36,2.37,7.17,3.07,11.19,1.95c2.58-0.72,4.37-2.28,4.82-5.06c0.27-1.66-0.21-3.02-1.7-3.89
			c-1.17-0.69-2.35-1.37-3.57-1.95c-2.09-1-4.22-1.91-6.31-2.9c-8.37-3.93-10.22-12.26-4.27-19.37c2.82-3.36,6.44-5.47,10.73-6.33
			c5.1-1.03,10.02-0.64,14.56,2.16c2.47,1.53,3,2.84,2,4.86c-1.2,2.43-3.94,3.61-6.22,2.48c-1.81-0.9-3.63-1.65-5.64-1.9
			c-1.95-0.25-3.83,0.06-5.63,0.8c-1.3,0.53-2.32,1.41-2.95,2.68c-1.06,2.15-0.65,3.8,1.3,5.23c0.97,0.71,2.05,1.23,3.15,1.71
			c2.85,1.26,5.73,2.47,8.48,3.9c4,2.08,6.38,5.28,6.04,10.01c-0.27,3.79-1.64,7.12-4.29,9.9
			C2126.66,828.27,2121.24,829.95,2115.21,830.06z"/>
		<path class="st2" d="M2295.65,811.54c0.05-7.48,2.11-14.34,6.81-20.24c4.82-6.06,11.16-9.44,18.94-9.88
			c3.6-0.2,6.98,0.66,9.98,2.75c1.95,1.36,2.42,2.29,1.97,3.92c-0.5,1.8-2.34,3.48-4.04,3.65c-0.97,0.1-1.92,0.03-2.76-0.56
			c-4.54-3.19-10.62-1.56-14.15,1.6c-2,1.79-3.59,3.86-4.68,6.3c-1.79,4-2.64,8.2-2.43,12.58c0.41,8.28,6.9,12.39,14.61,9.27
			c1.11-0.45,2.12-1.13,3.21-1.59c1.87-0.79,3.54-0.37,4.49,1.03c1,1.48,0.77,3.42-0.6,4.81c-0.39,0.39-0.86,0.72-1.32,1.03
			c-2.21,1.48-4.59,2.58-7.18,3.2c-3.48,0.84-6.97,0.88-10.44,0c-7.15-1.83-11.75-7.39-12.39-14.99
			C2295.58,813.46,2295.65,812.5,2295.65,811.54z"/>
		<path class="st2" d="M1789.61,812c-1.05-0.58-1.85-0.4-2.6-0.41c-4.08-0.02-8.16-0.01-12.24-0.01c-0.48,0-0.96,0.01-1.44,0
			c-1.87-0.06-2.7-0.62-2.86-1.88c-0.18-1.39,0.78-2.78,2.3-3.23c0.45-0.13,0.94-0.18,1.42-0.18c8.08-0.04,16.15-0.07,24.23-0.08
			c1.28,0,2.87,1.23,3.25,2.43c0.32,1.02-0.15,2.13-1.49,2.98c-2.23,1.41-4.51,2.73-6.77,4.08c-0.58,0.35-1.16,0.71-1.63,1.4
			c2.92,0,5.84,0,8.77,0c2.88,0,5.76-0.01,8.64,0c2.28,0.01,3.16,0.65,3.25,2.27c0.1,1.8-1.25,3.36-3.16,3.56
			c-0.63,0.07-1.28,0.04-1.92,0.04c-5.76,0-11.52-0.01-17.28,0.01c-2.05,0-2.06,0.02-2.46,2.02c-0.29,1.41-0.5,2.83-0.82,4.23
			c-0.55,2.4-2.09,3.89-4.44,4.57c-2.33,0.67-4.73,0.75-7.13,0.81c-1.57,0.04-2.76-0.75-3.48-2.14c-1.05-2.03,0.01-3.94,2.3-4.09
			c1.27-0.08,2.56,0.01,3.84,0.03c1.2,0.02,1.91-0.43,2.13-1.72c0.76-4.52,0.78-3.67-2.88-3.7c-5.44-0.04-10.88,0-16.32-0.01
			c-2.56-0.01-3.59-0.73-3.57-2.47c0.02-1.82,1.58-3.36,3.63-3.38c4.72-0.05,9.44-0.02,14.16-0.02c1.2,0,2.4-0.05,3.6,0.01
			c1.63,0.09,3.11,0.15,3.9-1.79c0.37-0.9,1.46-1.11,2.49-1.14C1786.77,814.15,1788.02,813.08,1789.61,812z"/>
		<path class="st2" d="M1668.35,802.82c-0.98,0.51-1.47,1.38-2.2,1.96c-1.53,1.22-2.84,0.78-3.46-1.07
			c-0.9-2.67-0.44-5.07,1.45-7.11c4.91-5.3,9-11.18,12.46-17.51c0.81-1.47,1.97-2.52,3.7-2.72c2.43-0.28,3.97,1.61,3.23,3.95
			c-0.14,0.45-0.38,0.88-0.61,1.3c-0.38,0.7-0.7,1.45-1.2,2.07c-3.4,4.2-4.36,9.23-5.21,14.38c-1.77,10.77-3.79,21.51-5.65,32.27
			c-0.27,1.53-0.94,2.7-2.23,3.5c-1.16,0.72-2.41,0.89-3.63,0.2c-1.29-0.72-1.62-1.92-1.39-3.29c0.55-3.22,1.12-6.44,1.69-9.66
			c1.01-5.73,2.03-11.46,3.03-17.19C1668.39,803.6,1668.35,803.29,1668.35,802.82z"/>
		<path class="st2" d="M1594.99,806.95c-7.74,0-15.49,0-23.23,0c-0.32,0-0.64,0-0.96,0c-2.88-0.02-4.23-0.94-4.37-2.97
			c-0.18-2.56,1.51-4.76,4-5.16c0.7-0.11,1.43-0.12,2.15-0.12c15.89-0.01,31.78,0,47.66,0c0.16,0,0.32,0,0.48,0
			c2.73,0.05,3.93,0.79,4.2,2.6c0.35,2.29-1,4.57-3.13,5.35c-0.93,0.34-1.88,0.31-2.84,0.31
			C1610.95,806.95,1602.97,806.95,1594.99,806.95z"/>
		<path class="st2" d="M1896.13,793.17c-1.09-1.44-2.17-2.25-3.24-3.07c-2.24-1.73-2.42-2.84-0.86-5.25
			c0.12-0.19,0.22-0.4,0.35-0.64c-0.26-0.09-0.48-0.17-0.7-0.25c-1.73-0.56-2.43-1.28-2.44-2.51c-0.01-1.35,1.07-2.75,2.52-3.15
			c0.61-0.17,1.26-0.21,1.9-0.21c5.6-0.02,11.19-0.03,16.79,0c3.4,0.02,4.38,1.26,3.78,4.66c-0.96,5.42-1.86,10.85-2.89,16.26
			c-0.76,4.02-2.31,5.45-6.32,6.04c-1.26,0.18-2.55,0.16-3.83,0.19c-1.45,0.03-2.4-0.73-2.99-1.99c-0.8-1.73,0.01-3.24,1.91-3.48
			c0.87-0.11,1.76-0.05,2.63-0.07c0.9-0.01,1.53-0.36,1.7-1.33c0.81-4.7,1.63-9.4,2.47-14.26c-3.72,0-7.26,0-11.02,0
			c0.57,0.88,1.34,1.15,1.94,1.59c2.13,1.56,2.41,3.16,0.87,5.29c-0.37,0.51-0.79,0.97-1.28,1.56c1.12-0.01,1.96-0.51,2.88-0.73
			c0.9-0.21,1.77-0.17,2.42,0.6c0.63,0.76,0.55,1.67,0.24,2.5c-0.44,1.18-1.32,2-2.51,2.42c-3.61,1.29-7.22,2.56-10.84,3.8
			c-0.51,0.18-1.1,0.23-1.65,0.19c-2.1-0.13-3.19-2.16-2.15-3.98c0.59-1.04,1.54-1.53,2.67-1.85
			C1890.94,794.8,1893.35,794.02,1896.13,793.17z"/>
		<path class="st2" d="M2427.84,834.76c-2.08,0-4.16,0.03-6.24-0.01c-2.09-0.03-3.21-0.76-3.54-2.19c-0.33-1.45,0.5-3.16,1.96-4.06
			c0.93-0.57,1.95-0.65,3-0.65c2.48,0.01,4.96-0.05,7.43,0.02c1.29,0.04,1.78-0.44,2-1.73c1.54-9.04,3.17-18.07,4.75-27.11
			c0.19-1.11,0.39-2.21,1.15-3.1c1.06-1.23,2.41-1.86,4.04-1.63c1.6,0.22,2.53,1.32,2.56,2.95c0.01,0.56-0.04,1.12-0.13,1.67
			c-1.85,10.45-3.69,20.9-5.58,31.34c-0.6,3.31-2.05,4.46-5.41,4.5C2431.84,834.78,2429.84,834.76,2427.84,834.76z"/>
		<path class="st2" d="M2069.49,775.2c2.08,0,4.15-0.04,6.23,0.01c2.19,0.05,3.2,0.73,3.49,2.2c0.32,1.61-0.58,3.33-2.18,4.16
			c-0.8,0.42-1.65,0.52-2.55,0.51c-2.55-0.02-5.11,0.06-7.66-0.03c-1.33-0.05-1.79,0.5-2,1.74c-1.4,8.17-2.86,16.32-4.3,24.48
			c-0.21,1.18-0.37,2.36-0.59,3.54c-0.28,1.5-1.1,2.64-2.45,3.36c-1.29,0.68-2.61,0.78-3.86-0.07c-1.21-0.81-1.45-2.04-1.22-3.39
			c0.49-2.83,0.99-5.65,1.49-8.48c1.39-7.85,2.79-15.69,4.19-23.53c0.55-3.1,2.03-4.41,5.19-4.49
			C2065.34,775.16,2067.42,775.2,2069.49,775.2z"/>
		<path class="st2" d="M1987.88,801.29c1.25-0.1,2.26,0.46,2.86,1.63c1.35,2.62,2.75,5.22,3.93,7.92c1.14,2.63-1.24,5.84-4.14,5.8
			c-1.36-0.02-2.21-0.75-2.73-1.95c-1.18-2.7-2.27-5.45-3.6-8.07C1983.08,804.4,1984.84,801.29,1987.88,801.29z"/>
		<path class="st2" d="M1787.42,781.3c-0.18-0.68-0.62-0.79-0.86-1.09c-0.76-0.94-0.7-1.71,0.25-2.43c1.25-0.94,2.64-1.23,4-0.31
			c0.94,0.64,1.66,0.58,2.55-0.09c0.9-0.68,1.95-1.1,3.13-0.87c1.5,0.29,1.96,1.41,1.06,2.62c-0.23,0.32-0.54,0.59-0.85,0.83
			c-0.69,0.53-0.88,1.02-0.16,1.73c0.89,0.89,0.71,1.88-0.04,2.78c-0.86,1.04-2.5,1.57-3.4,0.69c-1.51-1.46-2.63-0.78-3.93,0.11
			c-1.09,0.75-2.3,1.11-3.62,0.75c-0.81-0.22-1.52-0.64-1.65-1.53c-0.13-0.88,0.36-1.52,1.12-1.93
			C1785.78,782.15,1786.56,781.76,1787.42,781.3z"/>
		<path class="st2" d="M1859.65,802.82c-2.48-0.03-3.68-1.96-2.73-3.99c0.55-1.17,1.5-1.84,2.69-2.22c3.5-1.12,6.99-2.24,10.49-3.34
			c1.03-0.32,2.1-0.48,2.84,0.54c0.75,1.04,0.49,2.11-0.13,3.14c-0.51,0.85-1.24,1.47-2.16,1.83c-3.27,1.29-6.54,2.56-9.82,3.81
			C1860.4,802.77,1859.9,802.78,1859.65,802.82z"/>
		<path class="st2" d="M1704.95,792.54c1.44,0.37,2.8,0.14,4.14,0.2c1.83,0.09,2.83,0.81,2.95,2.15c0.12,1.35-0.91,2.73-2.4,3.18
			c-1.33,0.4-2.7,0.24-4.05,0.19c-1.26-0.04-1.98,0.36-2.06,1.68c-0.02,0.4-0.09,0.79-0.16,1.19c-0.4,2.38-0.4,2.38,1.93,2.56
			c2.13,0.17,3.28,1.32,3.01,3.43c-0.44,3.39-1.03,6.78-1.73,10.13c-0.42,2.02-2.05,3.29-4.15,3.34c-3.43,0.08-6.87,0.09-10.3,0
			c-2.2-0.05-3.36-1.47-3.02-3.66c0.48-3.15,1.06-6.29,1.71-9.41c0.52-2.49,1.96-3.77,4.49-3.79c1.47-0.01,1.87-0.57,2.12-1.88
			c0.66-3.5,0.73-3.48-2.8-3.57c-0.16,0-0.32,0-0.48-0.01c-1.88-0.11-2.69-0.65-2.89-1.91c-0.22-1.47,0.77-2.94,2.38-3.44
			c1.25-0.39,2.54-0.21,3.81-0.17c1.19,0.04,1.76-0.36,1.82-1.58c0.04-0.71,0.21-1.42,0.41-2.11c0.42-1.41,1.34-2.35,2.82-2.62
			c1.8-0.32,2.97,0.66,2.9,2.51C1705.37,790.14,1705.12,791.3,1704.95,792.54z M1698.03,815.57c3.3,0,3.3,0,3.86-3.18
			c0.03-0.16,0.04-0.31,0.07-0.47c0.48-2.99,0.48-2.99-2.58-2.99c-3.45,0-3.45,0-4.03,3.48
			C1694.81,815.57,1694.81,815.57,1698.03,815.57z"/>
	</g>
</g>
<g>
	<rect x="96.56" y="719.5" class="st0" width="32.09" height="104.78"/>
	
		<rect x="128.17" y="687.88" transform="matrix(6.619955e-11 -1 1 6.619955e-11 -591.3276 879.767)" class="st0" width="32.09" height="95.32"/>
	
		<rect x="159.79" y="783.69" transform="matrix(-1 -4.488866e-11 4.488866e-11 -1 351.6706 1672.1532)" class="st0" width="32.09" height="104.78"/>
	
		<rect x="128.17" y="824.76" transform="matrix(-6.619878e-11 1 -1 -6.619878e-11 1016.6379 728.1985)" class="st0" width="32.09" height="95.32"/>
</g>
</svg>
