<svg id="圖層_1" data-name="圖層 1" xmlns="http://www.w3.org/2000/svg" viewBox="0 0 3624.3 500"><defs><style>.cls-1{fill:#020202;}.cls-2{fill:#da4b3e;}.cls-3{fill:#fff;}.cls-4{fill:#d9483b;}.cls-5{font-size:143.04px;letter-spacing:0.15em;}.cls-5,.cls-6{font-family:DFLiSong-W5-WIN-BF, DFLiSong-Md;}.cls-6{font-size:61.03px;}</style></defs><title>LOGO</title><path class="cls-1" d="M827.72,288.49a57.81,57.81,0,0,1-12.16,2.78c-13.43,1.39-26.08-.61-36.82-9.45-9.34-7.69-15.36-17.46-17-29.6-1-7,.18-13.86,2.3-20.55,5-15.67,14.11-28.16,28.18-36.88a100,100,0,0,1,12.19-6.66,20.06,20.06,0,0,1,9.51-2.08,10.55,10.55,0,0,1,7.3,3.15,7.59,7.59,0,0,1,.3,10.44,14.73,14.73,0,0,1-3.53,2.85q-7.56,4.86-15.09,9.76c-10.92,7.11-17,17.42-20.07,29.85-3.2,12.78,7.14,25.15,18.15,26.88a39.29,39.29,0,0,0,23.6-3.22,72.28,72.28,0,0,0,11.84-7.24c5-3.66,9.79-7.46,14.7-11.17a6.28,6.28,0,0,0,1.66-2.3c4.79-9,9-18.32,13.38-27.56,3.54-7.51,7-15,11.64-22a33,33,0,0,1,5.7-6.76,11.18,11.18,0,0,1,5.69-2.88,6.39,6.39,0,0,1,7.24,3.78,3.41,3.41,0,0,0,1.26,1.67,19,19,0,0,1,5.37,5.41,107.94,107.94,0,0,1,8.62,14.63c4.35,8.53,8.49,17.17,12.14,26a3.79,3.79,0,0,0,2.42,2.33c3.6,1.35,4.68,4.59,2.72,7.95a2.62,2.62,0,0,0-.24,2.45,54.22,54.22,0,0,1,2.42,11,19.75,19.75,0,0,1-1.73,10.74c-1.42,3.11-4.49,4.09-7.6,2.56a22.67,22.67,0,0,1-8.75-7.64,53.72,53.72,0,0,1-4.95-8.19,2,2,0,0,0-2.53-1.4,183.67,183.67,0,0,1-26.49,2.29c-2.88.05-5.76.25-8.63.26a2,2,0,0,0-2,1.32c-8.12,16.29-17.72,31.78-26.29,47.83-1.39,2.6-2.59,5.31-4.2,7.8a10.93,10.93,0,0,1-7.92,5.22,10.7,10.7,0,0,1-11.94-9.2,14.73,14.73,0,0,1,1.25-7.47c2.1-5.11,4.94-9.84,7.56-14.68A4.69,4.69,0,0,0,827.72,288.49Zm61-75.56c-3.33,9-6.57,17.49-10.1,26.14l19.92-1.42Z"/><path class="cls-1" d="M1271.23,230.92c-7.23,7.29-13.92,14.87-17.82,24.48a17.41,17.41,0,0,1-3,5.13c-6.11,6.9-15.65,6.14-20.43-1.71-6.18-10.18-13.42-19.65-20-29.58a4.1,4.1,0,0,0-.46-.44,3.93,3.93,0,0,0-.23,2.49c.44,13.81.37,27.63.47,41.45.06,7.53-.76,15-1.23,22.49a11.71,11.71,0,0,1-9.72,11.24,11.88,11.88,0,0,1-14.08-10.64,37.72,37.72,0,0,1,.18-7.66,168.59,168.59,0,0,0,.95-20.09c-.07-20.38.29-40.74.64-61.11a38,38,0,0,1,.68-8.58c1.07-4.36,3.85-7.4,7.83-7.69a25.37,25.37,0,0,1,10.15,1.05,17.6,17.6,0,0,1,5.91,4,130.8,130.8,0,0,1,11,11.73c5.61,6.56,10.9,13.38,16,20.37.55.77,1.14,1.52,1.67,2.23.71,0,.87-.5,1.15-.86a144.29,144.29,0,0,1,26.62-26.79,43,43,0,0,0,6.35-5.79c3.6-4.14,8.2-5.51,13.43-3.82a11.17,11.17,0,0,1,8,9.34,19.8,19.8,0,0,1,.29,2.86c.58,23.16,2,46.29,2.22,69.46q.15,15.57.46,31.15a16.56,16.56,0,0,1-.46,4.75c-1.66,6-6.68,9.75-12.56,9.37a13,13,0,0,1-12-10.85,44.6,44.6,0,0,1-.32-4.77c-.44-11.74-.12-23.49-.4-35.23-.3-12.22-.84-24.43-.65-36.65A1.41,1.41,0,0,0,1271.23,230.92Z"/><path class="cls-1" d="M955.47,282.7c.82.31,1.32-.23,1.84-.49A144.14,144.14,0,0,0,1000,249.8a42.11,42.11,0,0,0,5.77-7.93,15.47,15.47,0,0,0,1-13.61,17.78,17.78,0,0,0-1-2.43c-5.25-9.55-12.9-16.17-23.58-18.92-5.28-1.35-10.64-.89-16,0-3.62.6-7.23,1.31-10.85,1.92a12.81,12.81,0,0,1-5.71-.17,8.79,8.79,0,0,1-3.21-15.35,9.37,9.37,0,0,1,2.23-1.39c9.42-3.92,19.08-6.85,29.42-6.94a47.53,47.53,0,0,1,23.7,5.89c11.82,6.49,21.08,15.53,26.63,27.95s5,24.67-1.53,36.63a66.43,66.43,0,0,1-9.39,13c-22.62,24.63-50,41.18-82.72,48.8-3.85.89-7.63,1.07-11.17-1-4.45-2.62-7.2-6.42-7-11.72s3.24-8.85,7.89-11.14a14.1,14.1,0,0,1,3.88-1.21,2,2,0,0,0,1.8-1.86c4-18.92,10.17-37.25,15.87-55.7a66.62,66.62,0,0,1,3.44-8.93,21.19,21.19,0,0,1,2.88-4.68,9,9,0,0,1,6.14-3.37c5.81-.58,10,3.71,9,9.46-1.3,7.22-2.82,14.41-4.25,21.62-2.15,10.81-4.65,21.53-7.42,32.2C955.7,281.49,955.6,282.1,955.47,282.7Z"/><path class="cls-1" d="M516.59,260.44c-2.09-.17-4.2-.44-6.33-.51-7.11-.21-14.23-.09-21.34.14a262.44,262.44,0,0,1-28.05-.21A59.43,59.43,0,0,1,445.35,257a24.41,24.41,0,0,1-4.54-2.13,16.74,16.74,0,0,1-7.37-20.73,34.5,34.5,0,0,1,6.39-10.35,138.81,138.81,0,0,1,15.34-15.14c13.75-12,29.26-21.38,45.4-29.74a214.18,214.18,0,0,1,24.58-11.31,36.65,36.65,0,0,1,6.9-1.94,16.19,16.19,0,0,1,6.43.28,9.64,9.64,0,0,1,7.19,7.84,6.53,6.53,0,0,1-3.24,6.92,14.11,14.11,0,0,1-3.29,1.42A75.25,75.25,0,0,0,527.42,187a293.55,293.55,0,0,0-42.6,26.23A156.68,156.68,0,0,0,463,233a5.15,5.15,0,0,0-1.47,2,4.8,4.8,0,0,0,2.73.46c7.59.44,15.18.21,22.78.1,8.71-.13,17.43-.55,26.14-.08A57.65,57.65,0,0,1,528,237.85a25.16,25.16,0,0,1,8.64,4.55c6.66,5.63,8.67,12.78,6.66,21.13a31.27,31.27,0,0,1-4.57,10.24,90.2,90.2,0,0,1-36.63,31.83,26.74,26.74,0,0,1-14.9,2.7,13.4,13.4,0,0,1-10.41-6.46c-3-4.93-1.69-10.21,3.15-13.32a33.9,33.9,0,0,1,4.69-2.39,85.23,85.23,0,0,0,30.2-22.72c.63-.72,1.18-1.51,1.74-2.28C516.68,261,516.6,260.83,516.59,260.44Z"/><path d="M673.59,201.22a19.91,19.91,0,0,1-3,10.05,35.45,35.45,0,0,1-7.25,8.25,96.9,96.9,0,0,1-12.86,9.18c-10.58,6.59-21.56,12.48-32.48,18.46q-14.51,7.93-29,15.79c-3.23,1.75-6.5,3.47-10.27,3.77-1.2.1-1.24,1.07-1.52,1.86-2.07,5.87-4.15,11.74-6.19,17.62-4,11.38-8,22.74-11.61,34.22A25.29,25.29,0,0,1,558,324a11.58,11.58,0,0,1-22-6.3,24.85,24.85,0,0,1,1.63-6.24q5.61-14.9,11.28-29.77c9-23.61,17.77-47.36,27.36-70.76,2.42-5.91,4.93-11.78,7.67-17.55a39.92,39.92,0,0,1,4.84-8,12.25,12.25,0,0,1,7.73-4.84,6.55,6.55,0,0,1,5.26,1.05,3.48,3.48,0,0,0,3.3.57,132.73,132.73,0,0,1,32.58-3.31,63.42,63.42,0,0,1,18.65,2.84,28.83,28.83,0,0,1,11.88,6.95A18,18,0,0,1,673.59,201.22Zm-86.8,39.7c1.27-.65,2-1,2.68-1.37,8.12-4.28,16.26-8.54,24.36-12.86,10-5.33,20.09-10.53,29.71-16.57a57.65,57.65,0,0,0,7.94-5.77,7.54,7.54,0,0,0,2.22-2.52,7.63,7.63,0,0,0-3.06-1.4,39.3,39.3,0,0,0-8.49-1.46,113.16,113.16,0,0,0-21.3.63,108.14,108.14,0,0,0-18.35,3.46,5.31,5.31,0,0,0-3.94,3.71c-3,9.07-6.26,18.1-9.4,27.14C588.41,236.07,587.7,238.24,586.79,240.92Z"/><path class="cls-1" d="M642.58,291.82a27.16,27.16,0,0,1,2.36-10.2c12.46-30.43,29.8-57.65,53.38-80.75a41.27,41.27,0,0,1,5.83-5c5.85-3.91,12.71-1.93,15.06,4.71,3.23,9.08,7.78,17.49,12.33,25.91,7.09,13.14,14.49,26.1,22.34,38.8a138.25,138.25,0,0,1,6.76,12.13,30.6,30.6,0,0,0,2.24,3.68,12.28,12.28,0,0,1-2.5,16.92c-5.27,4.05-12.49,3.22-17-1.94a22.55,22.55,0,0,1-4.51-8.37c-2-6.55-5.57-12.34-9-18.23a1.86,1.86,0,0,0-1.67-1.09,176.19,176.19,0,0,0-21.8-.14c-8.38.55-16.71,1.66-25.11,1.74a46.54,46.54,0,0,1-9.8-.52,2,2,0,0,0-2.43,1.28c-2.87,5.43-5.82,10.82-8.76,16.22q-1.73,3.15-3.56,6.24a16.48,16.48,0,0,1-3.74,4.33c-2,1.65-4.21,2.35-6.68,1.37s-3.49-3.14-3.76-5.68A13.83,13.83,0,0,1,642.58,291.82ZM717.36,247c-4.45-8.67-8.52-17.14-12.19-26.06a217,217,0,0,0-22.66,28.1C694.28,248,705.57,246.16,717.36,247Z"/><path class="cls-1" d="M1359.3,243.92c.9-2,1.83-4,2.75-6,4-8.79,8.35-17.42,11.94-26.39.63-1.55,1.16-3.14,1.83-4.68,1.56-3.58,4.66-5.58,8-5.27A8.08,8.08,0,0,1,1391,208a26.36,26.36,0,0,1-.19,12.11,90.13,90.13,0,0,1-4.83,15q-4.56,11.46-9.69,22.67A80.21,80.21,0,0,1,1369,271a35.65,35.65,0,0,0-3.29,6.38c-3.09,7-6.13,14-9.18,21.07-2.9,6.67-6.07,13.2-9.58,19.56-1.19,2.17-2.53,4.26-3.92,6.3a18.51,18.51,0,0,1-8.18,6.43,5.71,5.71,0,0,1-6.5-.79,5.79,5.79,0,0,1-1.75-6.31,72.39,72.39,0,0,1,3.09-9.3,196.93,196.93,0,0,0,7.43-21.23,173.88,173.88,0,0,1,9.76-25.2,3.07,3.07,0,0,0-.32-3.6c-13.57-19.46-27-39-36.84-60.73a69.8,69.8,0,0,1-4.28-11.16,11.7,11.7,0,0,1-.43-4,6.48,6.48,0,0,1,4.29-5.84,6.63,6.63,0,0,1,7,1.18A17.15,17.15,0,0,1,1319,187c6.31,8.65,12.22,17.58,18,26.56,6.6,10.21,13.85,19.94,21.25,29.58A1.59,1.59,0,0,0,1359.3,243.92Z"/><path class="cls-1" d="M1139.49,296.39c-6.7.35-13.4.64-20.1,1a293.26,293.26,0,0,1-30.67.14c-7.74-.34-15.48-.81-23.18-1.74a46.76,46.76,0,0,1-9.37-1.89,15.79,15.79,0,0,1-6.12-3.65,5.83,5.83,0,0,1-.51-8.39,15.21,15.21,0,0,1,7.56-4.81,61,61,0,0,1,12.69-2.33c11.62-1.19,23.28-1.46,34.94-2,8.93-.43,17.86-1.11,26.79-1.58,6.7-.36,13.41-.69,20.11.2a16.4,16.4,0,0,1,9,4.15,11.57,11.57,0,0,1-2.69,19.21,21.38,21.38,0,0,1-9.56,1.82h-8.87Z"/><path class="cls-1" d="M1110.74,234.14c9.36-.17,18.71-.49,28.06-.23a40.46,40.46,0,0,1,5.72.58A14.3,14.3,0,0,1,1156,246c1.22,6.75-3.28,12.82-10.34,13.88a19.64,19.64,0,0,1-3.59.24c-13.1-.54-26.22-.22-39.32-.72-8.23-.31-16.44-1-24.64-1.66-4.3-.36-8.61-.6-12.89-1.17a17.13,17.13,0,0,1-5.31-1.38c-4.81-2.32-6.24-7.35-3.38-11.87a12.82,12.82,0,0,1,4.76-4.28,34.09,34.09,0,0,1,11.61-3.58c7.61-1.19,15.3-1.07,23-1.25C1100.83,234,1105.79,234.14,1110.74,234.14Z"/><path class="cls-1" d="M1093.27,220.48c-9,.12-17.25.26-25.48.05a50,50,0,0,1-9.76-1c-5.45-1.22-8.72-5.47-8.26-10.7.32-3.65,2.33-6.19,5.43-8a26,26,0,0,1,9.34-2.81,271.88,271.88,0,0,1,29.61-2.42c12.53-.48,25.07-.86,37.55-2.28a39.14,39.14,0,0,1,7.18-.13,11.88,11.88,0,0,1,3.38,23.05c-4.08,1.52-8.4,1.88-12.68,2.35C1117.25,220,1104.86,220.14,1093.27,220.48Z"/><path class="cls-2" d="M686.57,319.16A16.5,16.5,0,0,0,691,316.7a6.13,6.13,0,0,1,6.58-.42,5.79,5.79,0,0,1,2.91,3.92c.29,1.14.5,2.3.82,3.77a40.51,40.51,0,0,1,3.5-2.7,20.51,20.51,0,0,1,3.8-1.22,4.52,4.52,0,0,0-1-2.48,52.12,52.12,0,0,1-4.93-12.69,10.44,10.44,0,0,1-.35-2.6,5.71,5.71,0,0,1,4.18-5.51,5.77,5.77,0,0,1,6.6,2.67,9.13,9.13,0,0,1,1,2.67,43.31,43.31,0,0,0,5.33,12.24,62.2,62.2,0,0,1,4.28,7.75,19.42,19.42,0,0,1,1.41,4.56,6.43,6.43,0,0,1-7.16,7.66A14,14,0,0,1,713.7,333c-.43-.19-.86-.41-1.31-.58-1.7-.64-1.73-.62-2.35,1.13-.5,1.43-.94,2.89-1.46,4.31a11.15,11.15,0,0,1-2.83,4.39,7.46,7.46,0,0,1-10,.32,11.8,11.8,0,0,1-3.34-4.89,55.31,55.31,0,0,1-2-6.63c-.89-.24-1.42.35-2,.66a91.32,91.32,0,0,1-13.3,6,12.33,12.33,0,0,1-4.45.84,6,6,0,0,1-5.26-8.72,9.08,9.08,0,0,1,.72-1.24c4.26-6.37,8.49-12.77,13-19a29.52,29.52,0,0,1,4.56-5.23,9.79,9.79,0,0,1,6.67-2.83,5.46,5.46,0,0,1,5.28,3.42c.72,2.18-.05,4.15-2.35,5.73C690.15,312.82,688.53,316.11,686.57,319.16Z"/><path class="cls-1" d="M803.77,146.47a6.46,6.46,0,0,1,5.79,4.39q1.56,4.17-2.35,7.4a17.34,17.34,0,0,0-2,1.75c-8.07,9-17.66,16.15-27.55,22.94a31.11,31.11,0,0,1-5.56,3.28,19,19,0,0,1-3.16,1.08,4.46,4.46,0,0,1-5.64-3.76,13.08,13.08,0,0,1,2.31-9.77,26.4,26.4,0,0,1,4.93-5.52c2.36-2,4.87-3.88,7.39-5.71,4.92-3.56,9.62-7.4,14.41-11.13a33.32,33.32,0,0,1,5.4-3.55A12.87,12.87,0,0,1,803.77,146.47Z"/><path class="cls-3" d="M888.75,212.93l9.82,24.72-19.92,1.42C882.18,230.42,885.42,221.93,888.75,212.93Z"/><path class="cls-3" d="M586.79,240.92c.91-2.68,1.62-4.85,2.37-7,3.14-9,6.35-18.07,9.4-27.14a5.31,5.31,0,0,1,3.94-3.71,108.14,108.14,0,0,1,18.35-3.46,113.16,113.16,0,0,1,21.3-.63,39.3,39.3,0,0,1,8.49,1.46,7.63,7.63,0,0,1,3.06,1.4,7.54,7.54,0,0,1-2.22,2.52,57.65,57.65,0,0,1-7.94,5.77c-9.62,6-19.7,11.24-29.71,16.57-8.1,4.32-16.24,8.58-24.36,12.86C588.77,239.92,588.06,240.27,586.79,240.92Z"/><path class="cls-3" d="M717.36,247c-11.79-.86-23.08,1-34.85,2A217,217,0,0,1,705.17,221C708.84,229.88,712.91,238.35,717.36,247Z"/><path class="cls-2" d="M2258.33,253.78q0,25.52,0,51a11.8,11.8,0,0,1-.13,2.38,1.6,1.6,0,0,1-1.73,1.36,1.55,1.55,0,0,1-1.53-1.28,8,8,0,0,1-.19-1.9q0-51.52,0-103.06a9.41,9.41,0,0,1,0-1.19c.14-1,.55-1.87,1.73-2,1-.08,1.69.74,1.81,2.11.07.71,0,1.43,0,2.15Z"/><path class="cls-2" d="M2871.27,241.07c-4.39,0-8.54,0-12.69,0-.77,0-1.11.47-1.48,1-1.12,1.65-2.23,3.32-3.42,4.92-2.18,2.94-3.6,3.17-6.62,1.18a4.88,4.88,0,0,0-.81-.35,48.6,48.6,0,0,0-1.28,6.51c-1.13,6.12-2.17,12.26-3.3,18.38-.58,3.13-2.08,4.31-5.29,4.33-3.52,0-7,0-10.56,0-1.18,0-1.86.17-2.16,1.54a3.78,3.78,0,0,1-3.39,3,2.65,2.65,0,0,1-3.26-2.83,10.22,10.22,0,0,1,.19-1.91q3.33-19,6.7-37.95c.5-2.81,2-4.12,4.93-4.26a6.87,6.87,0,0,1,1.2,0,2.06,2.06,0,0,0,2.49-1.65c.55-1.66,1.2-3.29,1.86-4.92a4.49,4.49,0,0,1,5.3-3c2.15.47,2.92,1.88,2,3.9-.61,1.38-1.4,2.69-2.1,4-.21.41-.59.79-.33,1.47a7.29,7.29,0,0,0,2.7.2c.79,0,1.6,0,2.39,0,2.77.17,3.81,1.52,3.35,4.31-.27,1.64-.58,3.26-.9,5.05,1.14-.36,1.51-1.21,2-1.88a77,77,0,0,0,8-13.32,6.31,6.31,0,0,1,2.36-2.94,3.76,3.76,0,0,1,4.26.14c1.05.92,1.2,2.22.46,3.94a28.11,28.11,0,0,0-1.76,3.83,3.48,3.48,0,0,0,2.42.37c3.52,0,7,0,10.56,0,3.1,0,4.22,1.41,3.67,4.4-1.9,10.37-4.2,20.64-7,30.79a41.64,41.64,0,0,1-2.69,7.42,10.43,10.43,0,0,1-9.08,6.1,26.23,26.23,0,0,1-5.74.09,4.2,4.2,0,0,1-3.61-5,2.58,2.58,0,0,1,2.77-2.15c1.51,0,3,0,4.55.13a5,5,0,0,0,5.52-3.6,94.4,94.4,0,0,0,3.21-10.77C2868.37,254.89,2869.81,248.19,2871.27,241.07Zm-40.78,29.28c1.11,0,2.23,0,3.34,0,.9,0,1.46-.16,1.63-1.23.53-3.29,1.16-6.56,1.76-9.85.15-.83,0-1.37-1-1.36-2.55,0-5.09,0-7.64,0-.73,0-1.2.24-1.34,1-.61,3.45-1.23,6.88-1.86,10.32-.16.9.34,1.09,1.09,1.08C2827.78,270.33,2829.14,270.35,2830.49,270.35Zm4.88-29.18c-1.27,0-2.55,0-3.82,0a1.26,1.26,0,0,0-1.45,1.22c-.44,2.58-.91,5.17-1.39,7.75-.16.9.12,1.36,1.09,1.35q3.7,0,7.41,0a1.36,1.36,0,0,0,1.6-1.33c.38-2.44.91-4.85,1.29-7.28.25-1.64.17-1.67-1.62-1.71C2837.45,241.15,2836.41,241.17,2835.37,241.17Z"/><path class="cls-2" d="M2746.94,253.55c-1.78.16-3.5.33-5.23.46a3,3,0,0,1-3-1.54c-1.12-1.86-.25-3.54,1.91-3.71,3.16-.24,3.19-.23,3.76-3.38.75-4.07,1.45-8.15,2.2-12.38h-11.49c1.18.9,2.12,1.56,3,2.3a2.8,2.8,0,0,1,.41,4.37,3,3,0,0,1-4.43.67c-.65-.47-1.24-1-1.86-1.52-1.82-1.52-2-2.77-.68-4.74.21-.32.6-.54.51-1.08l-.88-.14c-1.76-.33-2.55-1-2.7-2.24a3.61,3.61,0,0,1,2.23-3.38A6.54,6.54,0,0,1,2733,227h16.54a10.11,10.11,0,0,1,1.91.14,2.66,2.66,0,0,1,2.27,2.68,4.76,4.76,0,0,1-.06,1.19q-1.57,8.84-3.17,17.66c-.14.78-.39,1.54-.59,2.31a5.61,5.61,0,0,0,2.3.65c2.32.46,2.89,1.66,1.77,3.77-.18.34-.41.66-.61,1,.5.74,1.2.46,1.79.46,4.47,0,8.95,0,13.42,0,3.13,0,4.18,1.3,3.64,4.35q-1.58,8.83-3.13,17.67c-.65,3.69-3.38,5.42-7,4.47a1.42,1.42,0,0,1-1.17-1.06c-.21-1.06-1-1.12-1.79-1.12q-11.88,0-23.74,0a2.25,2.25,0,0,0-2.13,1.15c-.78,1.16-3.59,1.52-5.08.85s-2-1.95-1.62-3.85q1.61-9.19,3.26-18.37a4.46,4.46,0,0,1,4.78-4.08c2.72,0,5.44,0,8.15,0C2745.75,256.82,2745.75,256.82,2746.94,253.55Zm1.5,21.94h11.49c1.93,0,1.93,0,2.28-1.95.3-1.6.25-1.73-1.25-1.73q-12.09,0-24.18,0c-1.38,0-1.67.56-1.8,2.43-.1,1.48.89,1.24,1.73,1.24C2740.62,275.5,2744.53,275.49,2748.44,275.49Zm-11.83-9.58a6.92,6.92,0,0,0,2.45.2h21.79c.56,0,1.12,0,1.67,0a1,1,0,0,0,1-.53,3.67,3.67,0,0,0,.31-2.56c-.3-.81-1.25-.46-1.92-.46q-11.13,0-22.26,0c-3,0-2.42-.28-3.06,2.69A4,4,0,0,0,2736.61,265.91Z"/><path class="cls-2" d="M2572.89,227.36h13.18c.48,0,1,0,1.44,0,2.79.16,3.89,1.51,3.42,4.25-.63,3.69-1.3,7.38-2,11.07q-3,17.09-6,34.17c-.16.86-.27,1.74-.51,2.58a4.55,4.55,0,0,1-4.73,3.27c-1.22-.08-2.27-.53-2.43-1.86-.12-1-.56-1.32-1.52-1.32q-10.44,0-20.87,0a1.52,1.52,0,0,0-1.75,1.22,3.12,3.12,0,0,1-1.12,1.52,3.63,3.63,0,0,1-4,.62c-1.23-.67-1.69-1.65-1.38-3.5.82-4.88,1.7-9.74,2.56-14.61q2.78-15.67,5.54-31.34c.07-.4.12-.79.2-1.18.74-3.77,2.05-4.88,5.85-4.89C2563.45,227.35,2568.17,227.36,2572.89,227.36Zm10.31,6.91c-.24-.16-.3-.24-.37-.24l-22.26-.11a1.07,1.07,0,0,0-1.25,1.1c-.05.47-.21.93-.3,1.4q-3,17.31-6.08,34.61c-.35,2-.36,2,1.68,2q9.93,0,19.88,0c1.86,0,1.88,0,2.22-2q2.36-13.17,4.7-26.36C2582,241.21,2582.62,237.7,2583.2,234.27Z"/><path class="cls-2" d="M2649.76,243a20.13,20.13,0,0,0,3.93-2c-.05-.17,0-.35-.13-.44-.66-.64-1.69-1.07-1.16-2.32a3.33,3.33,0,0,1,3-1.65,3,3,0,0,1,1.79.61,1.54,1.54,0,0,0,2.31-.09,4.23,4.23,0,0,1,3.07-1.16,1.93,1.93,0,0,1,1.8,1,1.63,1.63,0,0,1-.51,1.95c-.5.51-1,1-1.54,1.45a1.34,1.34,0,0,0,.45.85c1.18,1.34,1.29,2.08.47,3.11a2.85,2.85,0,0,1-3.65.82,4.39,4.39,0,0,1-1-.69,1.32,1.32,0,0,0-1.92-.09,9.37,9.37,0,0,1-2.31,1.25,4,4,0,0,1-3,0c-3-1.46-6.22-.44-9.32-.7-.67-.05-.95.4-1,1.07s.33,1,1,1c.48,0,1,0,1.44,0h26.62a12,12,0,0,0,1.9-.1c.72-.12.74-.75.79-1.31.06-.71-.49-.71-1-.72-1,0-2.08,0-3.12,0-1.9-.05-2.71-.62-2.74-1.93a2.76,2.76,0,0,1,2.53-2.72c1.19-.12,2.39,0,3.59,0a15.63,15.63,0,0,0,1.68-.06c.7-.1.82-.68.86-1.25s-.47-.74-1-.75c-1.2,0-2.4,0-3.6,0-1.9-.07-2.68-.66-2.7-2a2.69,2.69,0,0,1,2.75-2.71c1.27-.07,2.56,0,3.84,0a8.59,8.59,0,0,0,1.43-.09c.7-.12.8-.71.82-1.28s-.44-.79-1-.8c-1.44,0-2.88,0-4.31,0-1.82-.07-2.51-.58-2.61-1.82a2.77,2.77,0,0,1,2.15-2.81,6.16,6.16,0,0,1,1.66-.17c2.64,0,5.28,0,7.91,0,3.3,0,4.3,1.23,3.67,4.53-.9,4.7-2.23,9.3-3.47,13.93a3.61,3.61,0,0,0-.32,1.83c.28.41.72.29,1.09.38,2.23.52,3,1.46,2.74,3.72a49,49,0,0,1-1,5.89A4.2,4.2,0,0,1,2679,260a3,3,0,0,1-3.71-3.63,22.25,22.25,0,0,0,.42-3.51,3.72,3.72,0,0,0-2.16-.29q-18,0-36,0c-2.32,0-2.32,0-2.74,2.24a18.72,18.72,0,0,1-.41,2.11,4.19,4.19,0,0,1-3.14,3c-2.2.57-3.91-.68-3.81-2.93a29.78,29.78,0,0,1,1.17-6.83,4,4,0,0,1,3.67-3c1.3-.12,1.77-.62,1.9-1.89.45-4.44,1-8.88,1.5-13.32.33-3,1.27-3.89,4.23-4a7.63,7.63,0,0,0,2.31-.54c1.58-.57,3.16-1.11,4.73-1.69a3.13,3.13,0,0,1,2.56,0,2.2,2.2,0,0,1,1.52,2,2.06,2.06,0,0,1-1.37,2c-.59.25-1.19.48-1.79.67-1.22.39-2.44.75-3.66,1.12-.69.2-1.63.33-1.47,1.24s1.16.57,1.8.6c1.2.06,2.4,0,3.6,0a2,2,0,0,1,2.25,1.37,2.48,2.48,0,0,1-1.09,2.72,3.85,3.85,0,0,1-2.5.65c-1.28,0-2.56,0-3.84,0-.81,0-1.12.4-1.14,1.18s.5.87,1.09.87h3.12C2648.56,240.21,2648.78,240.37,2649.76,243Z"/><path class="cls-2" d="M3242.21,249.75h9.05c1.28,0,2.57-.07,3.84,0a3.06,3.06,0,0,1,2.87,3.85,4.59,4.59,0,0,1-4.89,4c-3.36.06-6.71,0-10.07,0-2.25,0-2.24,0-2.62,2.16-.46,2.67-1,5.34-1.41,8-.37,2.27-.32,2.33,1.92,2.34h12.47a14.07,14.07,0,0,1,2.15.1,2.91,2.91,0,0,1,2.52,3.23,4.67,4.67,0,0,1-4.67,4.52c-2.24.05-4.47,0-6.71,0-4.8,0-9.59,0-14.39,0-3.22,0-4.29-1.35-3.72-4.55q3.3-18.74,6.61-37.47c.62-3.54,2.11-4.85,5.64-4.86H3260a9.86,9.86,0,0,1,1.44,0,3.06,3.06,0,0,1,2.75,3.74c-.43,2.61-2.12,4.06-5.05,4.1-3.92.07-7.84,0-11.75,0-3.23,0-3.25,0-3.85,3.21C3243.07,244.65,3242.67,247.08,3242.21,249.75Z"/><path class="cls-2" d="M3120.66,231.14c1,0,1.59,0,2.23,0a4.13,4.13,0,0,1,4.19,3.82c.82,5.44,1.6,10.89,2.4,16.34,1.07,7.34,2.11,14.68,3.23,22,.26,1.72.14,3.19-1.45,4.2a5.35,5.35,0,0,1-8.18-3.72c-.29-2.13-.49-4.28-.64-6.43-.07-1-.44-1.38-1.46-1.37-4.15,0-8.31.05-12.47,0a1.85,1.85,0,0,0-2,1.31c-.92,2.13-1.89,4.22-2.86,6.33-1.66,3.65-4.21,5-8.07,4.38a2.16,2.16,0,0,1-1.84-3,14.38,14.38,0,0,1,.89-2c6.16-12.36,12.38-24.68,18.42-37.09C3114.75,232.53,3117.1,230.73,3120.66,231.14Zm-10.18,27.63c3.28,0,6.06,0,8.85,0,2.15,0,2.21,0,2-2.08-.48-5.72-1-11.43-1.54-17.14,0-.31,0-.66-.63-.54C3116.37,245.39,3113.53,251.85,3110.48,258.77Z"/><path class="cls-2" d="M3051.7,231.14a69.55,69.55,0,0,1,9.57.35,18.48,18.48,0,0,1,5.71,1.65,9.31,9.31,0,0,1,5.45,8.38c.47,9.51-5.5,17.19-14.86,19.24a47.15,47.15,0,0,1-9.78.59c-2.76,0-2.75,0-3.23,2.83-.56,3.22-1.1,6.45-1.75,9.65a5.44,5.44,0,0,1-7.75,3.92c-1.34-.61-1.93-1.8-1.65-3.59.51-3.22,1.07-6.44,1.64-9.66,1.71-9.65,3.52-19.29,5.11-29a5.08,5.08,0,0,1,5.31-4.4h6.23ZM3046.55,254c2.85,0,5.62.25,8.39-.27,4.91-.93,7.34-3.48,8-8.46.48-3.42-.74-5.26-4.13-6.16-2.9-.78-5.88-.35-8.82-.45-.82,0-1.06.47-1.18,1.19-.45,2.76-1,5.5-1.44,8.25A33.89,33.89,0,0,0,3046.55,254Z"/><path class="cls-2" d="M2983.17,279a21.48,21.48,0,0,1-12.64-4c-2.15-1.56-2.36-3.47-.61-5.49,1.94-2.23,4.09-3.37,7.3-1.12a12.78,12.78,0,0,0,11.19,1.95,6,6,0,0,0,4.82-5.06,3.49,3.49,0,0,0-1.71-3.89c-1.16-.69-2.34-1.37-3.57-2-2.08-1-4.21-1.91-6.31-2.89-8.37-3.94-10.21-12.26-4.26-19.38a18.35,18.35,0,0,1,10.73-6.33c5.1-1,10-.65,14.56,2.16,2.48,1.52,3,2.83,2,4.86a4.73,4.73,0,0,1-6.23,2.48,17.7,17.7,0,0,0-5.63-1.91,11,11,0,0,0-5.63.8,5.49,5.49,0,0,0-3,2.68c-1.06,2.16-.65,3.8,1.3,5.24a16.43,16.43,0,0,0,3.14,1.71c2.85,1.26,5.73,2.47,8.49,3.9,4,2.08,6.38,5.28,6,10a15.49,15.49,0,0,1-4.29,9.9C2994.62,277.16,2989.19,278.85,2983.17,279Z"/><path class="cls-2" d="M3163.61,260.43a31.87,31.87,0,0,1,6.81-20.24,25.14,25.14,0,0,1,18.93-9.88,15.48,15.48,0,0,1,10,2.76c2,1.36,2.42,2.29,2,3.92a5.3,5.3,0,0,1-4,3.65,3.89,3.89,0,0,1-2.76-.56c-4.54-3.19-10.62-1.57-14.15,1.59a18.6,18.6,0,0,0-4.69,6.3,27.25,27.25,0,0,0-2.42,12.58c.4,8.27,6.9,12.38,14.6,9.26,1.11-.44,2.12-1.12,3.22-1.59a3.45,3.45,0,0,1,4.49,1,3.76,3.76,0,0,1-.61,4.81,8.22,8.22,0,0,1-1.32,1,22.3,22.3,0,0,1-7.18,3.2,21.28,21.28,0,0,1-10.43,0c-7.15-1.83-11.75-7.4-12.39-15C3163.54,262.35,3163.61,261.39,3163.61,260.43Z"/><path class="cls-2" d="M2657.56,260.9a4.44,4.44,0,0,0-2.6-.41c-4.08,0-8.15,0-12.23,0h-1.44c-1.87-.07-2.7-.62-2.87-1.89a3.08,3.08,0,0,1,2.31-3.23,5.15,5.15,0,0,1,1.41-.18q12.12-.06,24.23-.08a3.92,3.92,0,0,1,3.25,2.44c.32,1-.15,2.13-1.49,3-2.22,1.42-4.51,2.73-6.77,4.09a4.72,4.72,0,0,0-1.63,1.4h8.77c2.87,0,5.75,0,8.63,0,2.28,0,3.17.64,3.26,2.26a3.43,3.43,0,0,1-3.16,3.56,17.53,17.53,0,0,1-1.92,0H2658c-2.05,0-2.06,0-2.47,2-.28,1.41-.5,2.83-.82,4.23a5.89,5.89,0,0,1-4.43,4.57,28.12,28.12,0,0,1-7.13.81,3.65,3.65,0,0,1-3.48-2.14,2.63,2.63,0,0,1,2.29-4.09c1.28-.09,2.56,0,3.84,0a1.84,1.84,0,0,0,2.13-1.73c.76-4.52.77-3.67-2.88-3.7-5.44,0-10.88,0-16.32,0-2.56,0-3.58-.73-3.57-2.47a3.55,3.55,0,0,1,3.63-3.38c4.72,0,9.44,0,14.16,0,1.2,0,2.4-.05,3.6,0,1.63.09,3.1.15,3.89-1.78.37-.9,1.46-1.12,2.49-1.14C2654.73,263,2656,262,2657.56,260.9Z"/><path class="cls-2" d="M2536.31,251.72c-1,.51-1.48,1.38-2.21,2-1.52,1.21-2.84.77-3.46-1.08a6.68,6.68,0,0,1,1.45-7.11,87.27,87.27,0,0,0,12.47-17.5,4.7,4.7,0,0,1,3.7-2.72,2.87,2.87,0,0,1,3.23,3.94,7.26,7.26,0,0,1-.6,1.3,14.13,14.13,0,0,1-1.2,2.07c-3.4,4.2-4.36,9.23-5.21,14.38-1.77,10.78-3.79,21.51-5.65,32.27a4.83,4.83,0,0,1-2.24,3.5,3.38,3.38,0,0,1-3.63.2,2.88,2.88,0,0,1-1.39-3.29c.55-3.22,1.13-6.44,1.69-9.65q1.53-8.6,3-17.2A7.33,7.33,0,0,0,2536.31,251.72Z"/><path class="cls-2" d="M2462.94,255.85h-24.19c-2.88,0-4.23-.94-4.37-3a4.8,4.8,0,0,1,4-5.16,14,14,0,0,1,2.15-.12h48.14c2.73,0,3.92.79,4.2,2.59a5,5,0,0,1-3.14,5.35,8,8,0,0,1-2.84.32Z"/><path class="cls-2" d="M2764.09,242.06a15.55,15.55,0,0,0-3.24-3.08c-2.24-1.73-2.41-2.83-.86-5.25.13-.19.22-.4.35-.64l-.7-.24c-1.73-.56-2.43-1.28-2.43-2.51a3.45,3.45,0,0,1,2.52-3.15,7.1,7.1,0,0,1,1.9-.21c5.59,0,11.19,0,16.78,0,3.41,0,4.38,1.25,3.78,4.66-1,5.42-1.86,10.85-2.89,16.25-.76,4-2.3,5.45-6.32,6a32.53,32.53,0,0,1-3.83.19,3.06,3.06,0,0,1-3-2,2.29,2.29,0,0,1,1.91-3.49,23.22,23.22,0,0,1,2.64-.06,1.51,1.51,0,0,0,1.7-1.33c.81-4.7,1.62-9.4,2.47-14.26h-11a6,6,0,0,0,2,1.6c2.13,1.55,2.41,3.16.87,5.29-.36.5-.79,1-1.28,1.56a11.89,11.89,0,0,0,2.88-.73,2.22,2.22,0,0,1,2.42.6,2.41,2.41,0,0,1,.24,2.5,4,4,0,0,1-2.51,2.42q-5.41,1.94-10.84,3.8a4.21,4.21,0,0,1-1.65.19,2.58,2.58,0,0,1-2.15-4,4.08,4.08,0,0,1,2.67-1.85C2758.89,243.69,2761.31,242.91,2764.09,242.06Z"/><path class="cls-2" d="M3295.8,283.65c-2.08,0-4.16,0-6.24,0s-3.21-.75-3.54-2.19a4,4,0,0,1,2-4.06,5.46,5.46,0,0,1,3-.65c2.47,0,5,0,7.43,0,1.29,0,1.78-.44,2-1.74,1.54-9,3.17-18.07,4.76-27.11a6.08,6.08,0,0,1,1.15-3.1,4.33,4.33,0,0,1,4-1.63,2.81,2.81,0,0,1,2.56,2.95,7.79,7.79,0,0,1-.13,1.67q-2.77,15.68-5.58,31.34c-.6,3.31-2.05,4.46-5.42,4.5C3299.79,283.67,3297.79,283.65,3295.8,283.65Z"/><path class="cls-2" d="M2937.45,224.1c2.08,0,4.15,0,6.23,0s3.2.73,3.49,2.2a4,4,0,0,1-2.17,4.16,5.45,5.45,0,0,1-2.55.51c-2.56,0-5.12.05-7.67,0-1.33,0-1.79.51-2,1.75-1.4,8.16-2.86,16.32-4.3,24.48-.21,1.18-.37,2.36-.59,3.54a4.57,4.57,0,0,1-2.45,3.35,3.55,3.55,0,0,1-3.86-.06,3.11,3.11,0,0,1-1.22-3.39c.48-2.83,1-5.65,1.48-8.47q2.1-11.77,4.19-23.54c.56-3.1,2-4.41,5.19-4.49C2933.3,224.05,2935.38,224.1,2937.45,224.1Z"/><path class="cls-2" d="M2855.84,250.19a2.8,2.8,0,0,1,2.86,1.63c1.35,2.62,2.76,5.21,3.93,7.91s-1.24,5.85-4.14,5.81a2.87,2.87,0,0,1-2.74-2c-1.18-2.7-2.27-5.45-3.59-8.08A3.85,3.85,0,0,1,2855.84,250.19Z"/><path class="cls-2" d="M2655.38,230.2c-.18-.68-.62-.8-.86-1.09a1.48,1.48,0,0,1,.25-2.43,3.23,3.23,0,0,1,4-.31,1.89,1.89,0,0,0,2.55-.09,3.91,3.91,0,0,1,3.13-.88c1.5.29,2,1.42,1.06,2.62a4.18,4.18,0,0,1-.85.83c-.69.54-.88,1-.16,1.73a1.89,1.89,0,0,1,0,2.79c-.87,1-2.51,1.56-3.41.69-1.51-1.46-2.63-.78-3.93.1a4.22,4.22,0,0,1-3.62.75,1.93,1.93,0,0,1-1.65-1.52,1.83,1.83,0,0,1,1.12-1.93C2653.74,231,2654.51,230.65,2655.38,230.2Z"/><path class="cls-2" d="M2727.61,251.71c-2.48,0-3.68-2-2.73-4a4.18,4.18,0,0,1,2.69-2.22c3.5-1.13,7-2.24,10.5-3.34,1-.33,2.1-.49,2.83.54a2.66,2.66,0,0,1-.13,3.14,4.32,4.32,0,0,1-2.15,1.83q-4.9,1.94-9.82,3.81A5.16,5.16,0,0,1,2727.61,251.71Z"/><path class="cls-2" d="M2572.91,241.43a19.53,19.53,0,0,0,4.14.21c1.83.09,2.83.81,3,2.15a3.23,3.23,0,0,1-2.41,3.18,12.52,12.52,0,0,1-4,.19c-1.26,0-2,.36-2.06,1.68,0,.4-.09.79-.15,1.19-.41,2.37-.41,2.37,1.93,2.56,2.12.17,3.28,1.32,3,3.43-.44,3.4-1,6.78-1.73,10.13a4.13,4.13,0,0,1-4.15,3.34c-3.43.08-6.87.09-10.3,0-2.2-.05-3.35-1.46-3-3.66q.73-4.72,1.71-9.41c.52-2.48,2-3.77,4.49-3.79,1.47,0,1.87-.56,2.12-1.88.66-3.5.72-3.48-2.8-3.57h-.48c-1.88-.11-2.7-.65-2.89-1.91a3.21,3.21,0,0,1,2.38-3.44,11.61,11.61,0,0,1,3.81-.17c1.19,0,1.76-.36,1.82-1.58a9.07,9.07,0,0,1,.42-2.11,3.45,3.45,0,0,1,2.81-2.62,2.26,2.26,0,0,1,2.91,2.51C2573.32,239,2573.08,240.19,2572.91,241.43Zm-6.93,23c3.31,0,3.31,0,3.87-3.18,0-.16,0-.31.06-.47.48-3,.48-3-2.58-3-3.45,0-3.45,0-4,3.48C2562.77,264.46,2562.77,264.46,2566,264.46Z"/><rect class="cls-4" x="245.93" y="164.52" width="32.09" height="104.78"/><rect class="cls-4" x="277.54" y="132.91" width="32.09" height="95.32" transform="translate(113.02 474.16) rotate(-90)"/><rect class="cls-4" x="309.16" y="228.71" width="32.09" height="104.78" transform="translate(650.41 562.2) rotate(-180)"/><rect class="cls-4" x="277.54" y="269.78" width="32.09" height="95.32" transform="translate(611.03 23.85) rotate(90)"/><text class="cls-5" transform="translate(1603.82 293.02)">福衛子</text><text class="cls-6" transform="translate(1474.53 270.8)">×</text></svg>